# xmcd
#
# Track frame offsets:
#	150
#	26209
#	34803
#	50891
#	87376
#	120147
#	128775
#	130030
#	179232
#	225882
#
# Disc length: 3718 seconds
#
# Revision: 1
# Processed by: cddbd v1.5.2PL0 Copyright (c) Steve Scherf et al.
# Submitted via: audiograbber 1.83.01
#
DISCID=830e840a
DTITLE=Grateful Dead - 69-04-06 Avalon Ballroom, San Francisco Ca
DYEAR=1900
DGENRE=
TTITLE0=Good Morning Little Schoolgirl
TTITLE1=Tuning
TTITLE2=Biodtl
TTITLE3=It's All Over Now Baby Blue
TTITLE4=King Bee
TTITLE5=Cryptical Envelopment
TTITLE6=Drums
TTITLE7=The Other One
TTITLE8=Cryptical Envelopment
TTITLE9=Death Don't Have No Mercy
EXTD=
EXTT0=
EXTT1=
EXTT2=
EXTT3=
EXTT4=
EXTT5=
EXTT6=
EXTT7=
EXTT8=
EXTT9=
PLAYORDER=
